<svg xmlns="http://www.w3.org/2000/svg" viewBox="0 0 701 701" preserveAspectRatio="xMidYMid meet">
  <g transform="translate(0.000000,701.000000) scale(0.100000,-0.100000)" fill="currentColor">
    <path d="M3305 6604 c-182 -18 -259 -29 -388 -55 -1227 -248 -2210 -1310 -2401 -2596 -93 -617 19 -1286 311 -1868 84 -168 83 -167 83 -49 0 414 256 789 686 1003 287 142 508 197 1634 406 948 175 1140 223 1457 360 779 337 1131 985 906 1668 -181 550 -849 1002 -1643 1112 -109 16 -550 28 -645 19z m509 -349 c567 -66 1071 -309 1320 -635 269 -352 245 -836 -58 -1157 -146 -155 -390 -311 -573 -367 l-23 -7 -2 723 c-3 711 -3 724 -24 763 -66 126 -267 134 -350 13 l-29 -41 -5 -796 -5 -796 -110 -23 c-214 -45 -1050 -199 -1057 -195 -5 2 -8 408 -8 901 l0 897 -23 40 c-77 136 -279 133 -357 -5 l-25 -45 -3 -936 -2 -936 -88 -17 c-738 -145 -1178 -353 -1433 -676 l-64 -82 -17 84 c-94 453 -67 950 74 1388 406 1257 1600 2053 2862 1905z"/>
    <path d="M5830 5597 c0 -5 5 -18 11 -29 6 -11 20 -52 31 -92 267 -957 -313 -1826 -1453 -2176 -280 -86 -473 -128 -1236 -269 -700 -130 -818 -154 -998 -201 -546 -141 -835 -351 -967 -701 -47 -124 -49 -368 -4 -499 77 -228 229 -422 486 -621 1356 -1051 3332 -725 4287 706 108 162 224 366 266 470 9 22 30 74 47 115 176 422 246 810 237 1320 -12 689 -209 1291 -608 1850 -85 120 -98 137 -99 127z m304 -1362 c205 -982 -15 -1877 -641 -2606 -628 -732 -1659 -1050 -2633 -813 -326 80 -729 280 -990 491 -328 266 -431 521 -310 767 101 205 333 337 770 439 l145 34 5 -541 c5 -587 3 -559 64 -624 95 -102 262 -76 327 50 18 35 19 67 19 613 l0 575 23 9 c12 4 92 20 177 35 206 37 640 120 818 156 79 17 147 30 152 30 6 0 10 -259 10 -694 l0 -694 33 -48 c84 -127 263 -126 342 1 l30 48 5 749 5 749 140 48 c737 254 1237 693 1431 1256 20 58 40 103 45 98 4 -4 19 -62 33 -128z m-310 -2233 c-8 -9 -24 -28 -36 -42 l-20 -25 14 25 c34 57 42 68 50 64 4 -3 0 -12 -8 -22z"/>
  </g>
</svg>
